TITLE ""
FILE "1Q_t_0559-0568.mp3" MP3
  TRACK 01 AUDIO
    TITLE "1Q_t_0559-0568_01"
    INDEX 01 00:00:00
  TRACK 02 AUDIO
    TITLE "1Q_t_0559-0568_02"
    INDEX 01 00:01:04
  TRACK 03 AUDIO
    TITLE "1Q_t_0559-0568_03"
    INDEX 01 00:01:14
  TRACK 04 AUDIO
    TITLE "1Q_t_0559-0568_04"
    INDEX 01 00:03:20
  TRACK 05 AUDIO
    TITLE "1Q_t_0559-0568_05"
    INDEX 01 00:03:26
  TRACK 06 AUDIO
    TITLE "1Q_t_0559-0568_06"
    INDEX 01 00:09:70
  TRACK 07 AUDIO
    TITLE "1Q_t_0559-0568_07"
    INDEX 01 00:10:40
  TRACK 08 AUDIO
    TITLE "1Q_t_0559-0568_08"
    INDEX 01 00:11:71
  TRACK 09 AUDIO
    TITLE "1Q_t_0559-0568_09"
    INDEX 01 00:12:06
  TRACK 10 AUDIO
    TITLE "1Q_t_0559-0568_10"
    INDEX 01 00:14:01
  TRACK 11 AUDIO
    TITLE "1Q_t_0559-0568_11"
    INDEX 01 00:14:08
  TRACK 12 AUDIO
    TITLE "1Q_t_0559-0568_12"
    INDEX 01 00:21:42
  TRACK 13 AUDIO
    TITLE "1Q_t_0559-0568_13"
    INDEX 01 00:22:12
  TRACK 14 AUDIO
    TITLE "1Q_t_0559-0568_14"
    INDEX 01 00:23:41
  TRACK 15 AUDIO
    TITLE "1Q_t_0559-0568_15"
    INDEX 01 00:23:49
  TRACK 16 AUDIO
    TITLE "1Q_t_0559-0568_16"
    INDEX 01 00:25:61
  TRACK 17 AUDIO
    TITLE "1Q_t_0559-0568_17"
    INDEX 01 00:25:69
  TRACK 18 AUDIO
    TITLE "1Q_t_0559-0568_18"
    INDEX 01 00:32:59
  TRACK 19 AUDIO
    TITLE "1Q_t_0559-0568_19"
    INDEX 01 00:33:27
  TRACK 20 AUDIO
    TITLE "1Q_t_0559-0568_20"
    INDEX 01 00:34:37
  TRACK 21 AUDIO
    TITLE "1Q_t_0559-0568_21"
    INDEX 01 00:34:48
  TRACK 22 AUDIO
    TITLE "1Q_t_0559-0568_22"
    INDEX 01 00:37:45
  TRACK 23 AUDIO
    TITLE "1Q_t_0559-0568_23"
    INDEX 01 00:37:51
  TRACK 24 AUDIO
    TITLE "1Q_t_0559-0568_24"
    INDEX 01 00:44:35
  TRACK 25 AUDIO
    TITLE "1Q_t_0559-0568_25"
    INDEX 01 00:45:05
  TRACK 26 AUDIO
    TITLE "1Q_t_0559-0568_26"
    INDEX 01 00:46:32
  TRACK 27 AUDIO
    TITLE "1Q_t_0559-0568_27"
    INDEX 01 00:46:40
  TRACK 28 AUDIO
    TITLE "1Q_t_0559-0568_28"
    INDEX 01 00:47:59
  TRACK 29 AUDIO
    TITLE "1Q_t_0559-0568_29"
    INDEX 01 00:47:67
  TRACK 30 AUDIO
    TITLE "1Q_t_0559-0568_30"
    INDEX 01 00:55:33
  TRACK 31 AUDIO
    TITLE "1Q_t_0559-0568_31"
    INDEX 01 00:56:05
  TRACK 32 AUDIO
    TITLE "1Q_t_0559-0568_32"
    INDEX 01 00:57:06
  TRACK 33 AUDIO
    TITLE "1Q_t_0559-0568_33"
    INDEX 01 00:57:14
  TRACK 34 AUDIO
    TITLE "1Q_t_0559-0568_34"
    INDEX 01 00:59:66
  TRACK 35 AUDIO
    TITLE "1Q_t_0559-0568_35"
    INDEX 01 00:59:74
  TRACK 36 AUDIO
    TITLE "1Q_t_0559-0568_36"
    INDEX 01 01:06:05
  TRACK 37 AUDIO
    TITLE "1Q_t_0559-0568_37"
    INDEX 01 01:06:52
  TRACK 38 AUDIO
    TITLE "1Q_t_0559-0568_38"
    INDEX 01 01:07:67
  TRACK 39 AUDIO
    TITLE "1Q_t_0559-0568_39"
    INDEX 01 01:08:02
  TRACK 40 AUDIO
    TITLE "1Q_t_0559-0568_40"
    INDEX 01 01:09:33
  TRACK 41 AUDIO
    TITLE "1Q_t_0559-0568_41"
    INDEX 01 01:09:39
  TRACK 42 AUDIO
    TITLE "1Q_t_0559-0568_42"
    INDEX 01 01:14:73
  TRACK 43 AUDIO
    TITLE "1Q_t_0559-0568_43"
    INDEX 01 01:15:45
  TRACK 44 AUDIO
    TITLE "1Q_t_0559-0568_44"
    INDEX 01 01:16:49
  TRACK 45 AUDIO
    TITLE "1Q_t_0559-0568_45"
    INDEX 01 01:16:60
  TRACK 46 AUDIO
    TITLE "1Q_t_0559-0568_46"
    INDEX 01 01:18:54
  TRACK 47 AUDIO
    TITLE "1Q_t_0559-0568_47"
    INDEX 01 01:18:61
  TRACK 48 AUDIO
    TITLE "1Q_t_0559-0568_48"
    INDEX 01 01:24:17
  TRACK 49 AUDIO
    TITLE "1Q_t_0559-0568_49"
    INDEX 01 01:24:64
  TRACK 50 AUDIO
    TITLE "1Q_t_0559-0568_50"
    INDEX 01 01:26:16
  TRACK 51 AUDIO
    TITLE "1Q_t_0559-0568_51"
    INDEX 01 01:26:24
  TRACK 52 AUDIO
    TITLE "1Q_t_0559-0568_52"
    INDEX 01 01:28:13
  TRACK 53 AUDIO
    TITLE "1Q_t_0559-0568_53"
    INDEX 01 01:28:21
  TRACK 54 AUDIO
    TITLE "1Q_t_0559-0568_54"
    INDEX 01 01:34:27
  TRACK 55 AUDIO
    TITLE "1Q_t_0559-0568_55"
    INDEX 01 01:34:72
  TRACK 56 AUDIO
    TITLE "1Q_t_0559-0568_56"
    INDEX 01 01:36:01
  TRACK 57 AUDIO
    TITLE "1Q_t_0559-0568_57"
    INDEX 01 01:36:10
  TRACK 58 AUDIO
    TITLE "1Q_t_0559-0568_58"
    INDEX 01 01:37:12
  TRACK 59 AUDIO
    TITLE "1Q_t_0559-0568_59"
    INDEX 01 01:37:22
  TRACK 60 AUDIO
    TITLE "1Q_t_0559-0568_60"
    INDEX 01 01:44:04
